# xmcd CD database file generated by LOLA_Freedb v0.9beta0
# 
# Track frame offsets:
#      150
#      11046
#      23790
#      32315
#      44233
#      57844
#      72670
#      85828
#      93502
#      106801
#      122143
#      134566
# 
# Disc length: 1960 seconds
# 
# Revision: 0 
# Processed by: cddbd v1.5.2PL0 Copyright (c) Steve Scherf et al.
# Submitted via: LOLA_Freedb v0.9beta0
# 
DISCID=a407a60c
DTITLE=Alpenoberkrainer - Alpenweihnacht
DYEAR=1900
DGENRE=
TTITLE0=Alpenoberkrainer - Leise rieselt der Schnee
TTITLE1=Alpenoberkrainer - Jingle Bells
TTITLE2=Alpenoberkrainer - Der weihnachtsmann
TTITLE3=Alpenoberkrainer - Wieder Zuhause
TTITLE4=Alpenoberkrainer - Alpenweihnacht
TTITLE5=Alpenoberkrainer - Süsser die Glocken nie klingen
TTITLE6=Alpenoberkrainer - White Christmas
TTITLE7=Alpenoberkrainer - Kling Glöcklein
TTITLE8=Alpenoberkrainer - Winterbummel
TTITLE9=Alpenoberkrainer - Weihnachtszeit
TTITLE10=Alpenoberkrainer - Hirten Polka
TTITLE11=Alpenoberkrainer - Stille Nacht
EXTD=
EXTT0=
EXTT1=
EXTT2=
EXTT3=
EXTT4=
EXTT5=
EXTT6=
EXTT7=
EXTT8=
EXTT9=
EXTT10=
EXTT11=
PLAYORDER=
